<svg xmlns="http://www.w3.org/2000/svg" width="1037.82" height="1037.82" viewBox="0 0 1037.82 1037.82" style="background-color:#000;" >
  <g id="Group_19505" data-name="Group 19505" transform="translate(-9978.108 2041.667) rotate(-45)">
    <g id="Group_785" data-name="Group 785" transform="translate(8224.38 6232.01)">
      <g id="Group_765" data-name="Group 765" transform="translate(0 12.747)">
        <path id="Path_11374" data-name="Path 11374" d="M813.448,507.644c-.792-15.6-7.7-32.146-17.727-41.05-10.152-9.013-20.847-9.21-28.028-9.359-3.712-.076-10.485.867-13.9-.123a7.742,7.742,0,0,1-4.124-3.328V433.565c0-9.106-30.97-16.489-69.174-16.489s-69.177,7.383-69.177,16.489V590.141c0,13.948,30.97,25.254,69.177,25.254s69.174-11.306,69.174-25.254V582.2c.494-.8,1.577-1.793,3.814-1.124A61.609,61.609,0,0,0,771.308,584c9.711,0,24.853-5.621,34.019-23.125C814.092,544.139,814.445,527.277,813.448,507.644Zm-41.868,58.58c-11.528,0-19.165-5.759-21.912-21.47V493.045c3.967-12.176,10.454-18.074,21.837-18.074,13.815,0,27.525,12.446,27.525,44.756C799.03,548.249,787,566.224,771.58,566.224Z" transform="translate(-611.317 -417.076)" fill="#fff"/>
        <ellipse id="Ellipse_6" data-name="Ellipse 6" cx="55.311" cy="7.329" rx="55.311" ry="7.329" transform="translate(13.369 15.351)" fill="#d8d8d8"/>
      </g>
      <path id="Path_11375" data-name="Path 11375" d="M1036.807,524.721a2.64,2.64,0,0,0,.541,3.063A16.057,16.057,0,0,0,1041,529.2l5.355,72.073,6.694,3.57,6.472-4.352-1.338-20.193,5.232-2.627,46.645,19.809,1.339,34.92,8.368,3.682,6.7-4.8-.122-24.03,43.309-26.576.1,13.867,6.3,2.162,5.528-3.793.473-74.166.732-17.431L1193.51,405.8l-6.569-1.447-7.289.528-.905,7.059L1120.906,410l.488-4.908-5.516-1.555-7.384.324-6.059,70.254v27.647l-59.95,19.657-3.011,1A4.326,4.326,0,0,0,1036.807,524.721Zm19.9,35.169-.787-14.665,27.237,9.411-18.6,8.175Zm51.9,19.307-27.219-10.126,18.494-8.655,8.725,3.015Zm6.324-77.484.726-23.474,53.529,10.377-.911,24.722Zm53.685,48.059-11.436-3.527,11.159-5.746Zm-42.492,39.657V562.236l14.566-7.5,28.341,8.958.047,1.538Z" transform="translate(-636.098 -403.54)" fill="#fff"/>
      <path id="Path_11376" data-name="Path 11376" d="M1007.826,522.42l-3.011-1-59.949-19.657V474.118l-6.059-70.254-7.385-.324-5.516,1.555.487,4.908-57.839,1.934-.906-7.059-7.289-.528L853.79,405.8l10.733,95.516.73,17.431.473,74.166,5.528,3.793,6.3-2.162.1-13.867,43.306,26.576-.12,24.03,6.693,4.8L935.9,632.4l1.338-34.92,46.647-19.809,5.233,2.627-1.339,20.193,6.472,4.352,6.693-3.57L1006.3,529.2a16.046,16.046,0,0,0,3.649-1.412,2.637,2.637,0,0,0,.541-3.063A4.33,4.33,0,0,0,1007.826,522.42ZM982.738,562.81l-18.6-8.175,27.237-9.411-.786,14.665Zm-44.046.619,8.724-3.015,18.494,8.655L938.692,579.2Zm-59.667-50.093-.91-24.722,53.527-10.377.725,23.474Zm-.064,27.162,11.159,5.746-11.437,3.527Zm-.739,24.733.047-1.538,28.342-8.958,14.566,7.5v27.192Z" transform="translate(-625.453 -403.54)" fill="#fff"/>
    </g>
    <path id="Path_11377" data-name="Path 11377" d="M154.527,154.527H300.438V150H150V300.438h4.527Z" transform="translate(7849.265 5961.912)" fill="#fff"/>
    <path id="Path_11378" data-name="Path 11378" d="M154.527,787.3V641.389H150V791.826H300.438V787.3Z" transform="translate(7849.265 5787.784)" fill="#fff"/>
    <path id="Path_11379" data-name="Path 11379" d="M300.647,300.647h52.781V300H300v53.428h.647Z" transform="translate(7796.279 5908.796)" fill="#fff" stroke="#fff" stroke-width="0.5"/>
    <path id="Path_11380" data-name="Path 11380" d="M300.647,694.749V641.968H300V695.4h53.428v-.647Z" transform="translate(7796.279 5787.704)" fill="#fff" stroke="#fff" stroke-width="0.5"/>
    <path id="Path_11381" data-name="Path 11381" d="M1518.176,694.749H1465.4v.647h53.427V641.968h-.646Z" transform="translate(7383.432 5787.704)" fill="#fff" stroke="#fff" stroke-width="0.5"/>
    <path id="Path_11382" data-name="Path 11382" d="M1518.176,300.647v52.781h.646V300H1465.4v.647Z" transform="translate(7383.432 5908.796)" fill="#fff" stroke="#fff" stroke-width="0.5"/>
    <path id="Path_11383" data-name="Path 11383" d="M1611.307,154.527H1465.4V150h150.438V300.438h-4.526Z" transform="translate(7383.432 5961.912)" fill="#fff"/>
    <path id="Path_11384" data-name="Path 11384" d="M1611.307,787.3V641.389h4.526V791.826H1465.4V787.3Z" transform="translate(7383.432 5787.784)" fill="#fff"/>
  </g>
</svg>
